<?xml version="1.0" encoding="UTF-8"?>
<svg id="Livello_2" data-name="Livello 2" xmlns="http://www.w3.org/2000/svg" viewBox="0 0 550.21 227.86">
  <defs>
    <style>
      .cls-1 {
        fill: #1d1d1b;
      }

      .cls-2 {
        fill: #36a9e1;
      }
    </style>
  </defs>
  <g id="Livello_1-2" data-name="Livello 1">
    <g>
      <polygon class="cls-2" points="0 55.37 107.98 117.71 0 180.06 0 55.37"/>
      <path class="cls-2" d="M189.49,83.82v71.21h-26.03c-19.66,0-35.63-15.92-35.63-35.58s15.97-35.63,35.63-35.63h26.03Z"/>
      <path class="cls-2" d="M266.14,41.32V112.53h-26.03c-19.66,0-35.63-15.92-35.63-35.58s15.97-35.63,35.63-35.63h26.03Z"/>
      <path class="cls-2" d="M266.14,119.61v71.21h-26.03c-19.66,0-35.63-15.92-35.63-35.58s15.97-35.63,35.63-35.63h26.03Z"/>
      <path class="cls-2" d="M343.88,0V71.21h-26.03c-19.66,0-35.63-15.92-35.63-35.58S298.2,0,317.85,0h26.03Z"/>
      <path class="cls-2" d="M343.88,78.58v71.21h-26.03c-19.66,0-35.63-15.92-35.63-35.58s15.97-35.63,35.63-35.63h26.03Z"/>
      <path class="cls-2" d="M343.88,156.48v71.21h-26.03c-19.66,0-35.63-15.92-35.63-35.58s15.97-35.63,35.63-35.63h26.03Z"/>
      <path class="cls-1" d="M436.56,.74h-83.01V227.86h83.01c62.7,0,113.65-50.77,113.65-113.65S499.27,.74,436.56,.74Zm34.72,91.88c-11.88,0-21.5-9.63-21.5-21.5s9.63-21.5,21.5-21.5,21.5,9.63,21.5,21.5-9.63,21.5-21.5,21.5Z"/>
    </g>
  </g>
</svg>